<?xml version="1.0" encoding="UTF-8"?>
<svg xmlns="http://www.w3.org/2000/svg" width="272" height="253" viewBox="0 0 272 253" fill="none">
  <path opacity="0.2" fill-rule="evenodd" clip-rule="evenodd" d="M-9.73887 0.137368C-9.44837 -0.0857957 -9.0319 -0.031308 -8.80864 0.25907C-8.44758 0.728686 -8.09506 1.20256 -7.7508 1.68057C-7.53674 1.97778 -7.60426 2.39218 -7.9016 2.60616C-8.19893 2.82013 -8.6135 2.75264 -8.82756 2.45542C-9.16383 1.98852 -9.50809 1.52574 -9.86062 1.06722C-10.0839 0.776841 -10.0294 0.360532 -9.73887 0.137368ZM-5.7589 5.88689C-5.4436 5.70037 -5.03674 5.80467 -4.85014 6.11984C-4.24919 7.13489 -3.67858 8.16502 -3.13591 9.20908C-2.96699 9.53406 -3.09361 9.93439 -3.41873 10.1032C-3.74384 10.2721 -4.14433 10.1455 -4.31325 9.82053C-4.8451 8.79729 -5.4039 7.78854 -5.99195 6.79528C-6.17854 6.4801 -6.0742 6.07341 -5.7589 5.88689ZM-1.74596 13.6479C-1.40918 13.5037 -1.01922 13.6597 -0.87495 13.9963C-0.412842 15.0746 0.0251259 16.1651 0.441308 17.2664C0.570769 17.609 0.397871 17.9917 0.0551304 18.1211C-0.28761 18.2505 -0.670404 18.0777 -0.799865 17.7351C-1.20961 16.6507 -1.64041 15.5782 -2.09453 14.5186C-2.23879 14.1819 -2.08273 13.7921 -1.74596 13.6479ZM1.3326 21.8264C1.68206 21.7164 2.05456 21.9104 2.16461 22.2597C2.51589 23.3748 2.84945 24.499 3.16753 25.6311C3.26658 25.9837 3.06094 26.3498 2.70821 26.4488C2.35548 26.5479 1.98923 26.3423 1.89018 25.9897C1.57556 24.8699 1.24593 23.759 0.899106 22.6581C0.78906 22.3088 0.983142 21.9364 1.3326 21.8264ZM3.69162 30.243C4.04789 30.1575 4.406 30.3769 4.49149 30.733C4.76392 31.8678 5.02462 33.0089 5.27571 34.1553C5.35407 34.5131 5.12745 34.8666 4.76955 34.9449C4.41165 35.0232 4.058 34.7967 3.97965 34.439C3.73025 33.3002 3.47151 32.1678 3.20136 31.0425C3.11586 30.6864 3.33536 30.3284 3.69162 30.243ZM5.56159 38.7835C5.92114 38.7131 6.26967 38.9474 6.34005 39.3068C6.56409 40.4509 6.78186 41.5989 6.99539 42.7497C7.0622 43.1098 6.82433 43.4558 6.4641 43.5226C6.10387 43.5894 5.75768 43.3516 5.69087 42.9916C5.47799 41.8442 5.26104 40.7006 5.038 39.5616C4.96762 39.2022 5.20204 38.8538 5.56159 38.7835ZM7.1604 47.3795C7.52114 47.3155 7.86545 47.556 7.92944 47.9166C8.07058 48.7121 8.21121 49.5086 8.35188 50.3054C8.414 50.6573 8.47613 51.0092 8.53832 51.3611C8.60205 51.7217 8.36124 52.0657 8.00045 52.1294C7.63966 52.1931 7.29552 51.9524 7.23178 51.5918C7.16949 51.2393 7.1073 50.887 7.04513 50.5349C6.90452 49.7385 6.76408 48.943 6.62306 48.1482C6.55908 47.7876 6.79965 47.4434 7.1604 47.3795ZM8.68999 55.9879C9.05041 55.9221 9.39591 56.1609 9.46167 56.5212C9.67073 57.6665 9.88343 58.8109 10.1017 59.9538C10.1704 60.3136 9.93441 60.6609 9.57453 60.7295C9.21466 60.7982 8.86722 60.5623 8.79851 60.2026C8.57939 59.0554 8.36602 57.9073 8.15646 56.7592C8.09069 56.399 8.32956 56.0536 8.68999 55.9879ZM10.3429 64.573C10.7014 64.4975 11.0533 64.7268 11.1288 65.0851C11.3688 66.2235 11.6172 67.3588 11.8761 68.4902C11.9577 68.8472 11.7344 69.2028 11.3773 69.2845C11.0201 69.3661 10.6644 69.1429 10.5827 68.7859C10.3219 67.6463 10.0719 66.5035 9.83057 65.3586C9.75504 65.0002 9.98443 64.6485 10.3429 64.573ZM12.3105 73.0912C12.6648 72.9979 13.0277 73.2093 13.121 73.5634C13.4172 74.6867 13.7267 75.8046 14.0518 76.9162C14.1546 77.2678 13.9528 77.636 13.6011 77.7387C13.2495 77.8415 12.8811 77.6398 12.7783 77.2883C12.4497 76.1645 12.137 75.0352 11.8381 73.9014C11.7447 73.5472 11.9562 73.1845 12.3105 73.0912ZM14.786 81.4747C15.1324 81.3554 15.51 81.5394 15.6292 81.8857C15.8179 82.4333 16.0111 82.9789 16.2093 83.5226C16.416 84.0895 16.6258 84.6501 16.8385 85.2043C16.9698 85.5462 16.7989 85.9298 16.4569 86.061C16.1148 86.1922 15.7311 86.0213 15.5998 85.6794C15.3844 85.1181 15.172 84.5506 14.9627 83.9766L14.9627 83.9765C14.7618 83.4253 14.5659 82.8723 14.3748 82.3175C14.2555 81.9713 14.4396 81.5939 14.786 81.4747ZM17.9573 89.6876C18.2919 89.5386 18.6841 89.689 18.8332 90.0235C19.2977 91.0658 19.774 92.0832 20.2616 93.0764C20.423 93.4052 20.2873 93.8025 19.9584 93.9639C19.6295 94.1252 19.232 93.9895 19.0706 93.6607C18.5756 92.6526 18.0924 91.6202 17.6213 90.5632C17.4722 90.2287 17.6226 89.8367 17.9573 89.6876ZM21.8175 97.4729C22.1356 97.2912 22.5408 97.4016 22.7226 97.7196C23.2889 98.71 23.868 99.6732 24.4594 100.61C24.6549 100.92 24.5622 101.329 24.2524 101.525C23.9426 101.72 23.5329 101.628 23.3374 101.318C22.7355 100.364 22.1465 99.3846 21.5707 98.3776C21.3889 98.0597 21.4994 97.6546 21.8175 97.4729ZM26.4817 104.791C26.7765 104.574 27.1918 104.636 27.4093 104.931C28.088 105.85 28.7804 106.741 29.486 107.603C29.718 107.886 29.6762 108.304 29.3927 108.536C29.1091 108.768 28.6912 108.726 28.4592 108.442C27.7395 107.563 27.0335 106.655 26.3418 105.718C26.1242 105.424 26.1869 105.009 26.4817 104.791ZM32.0057 111.48C32.2697 111.226 32.6896 111.234 32.9437 111.498C33.7388 112.323 34.548 113.118 35.3709 113.884C35.639 114.134 35.654 114.554 35.4043 114.822C35.1546 115.09 34.7348 115.104 34.4667 114.855C33.6262 114.072 32.7997 113.26 31.988 112.418C31.7339 112.154 31.7418 111.734 32.0057 111.48ZM38.3784 117.366C38.6047 117.078 39.0217 117.027 39.3099 117.254C40.2144 117.963 41.133 118.643 42.0652 119.295C42.3654 119.505 42.4387 119.918 42.2287 120.218C42.0188 120.518 41.6052 120.592 41.3049 120.382C40.3529 119.716 39.4145 119.022 38.4905 118.297C38.2024 118.07 38.1522 117.654 38.3784 117.366ZM45.5086 122.315C45.6934 121.999 46.0996 121.892 46.416 122.077C47.4087 122.656 48.4147 123.208 49.4332 123.733C49.7588 123.901 49.8866 124.301 49.7186 124.627C49.5506 124.952 49.1504 125.08 48.8248 124.912C47.7862 124.376 46.76 123.813 45.7469 123.222C45.4306 123.037 45.3238 122.631 45.5086 122.315ZM53.2427 126.28C53.3862 125.943 53.7758 125.786 54.1129 125.93C55.1678 126.378 56.2343 126.803 57.3118 127.205C57.655 127.333 57.8296 127.714 57.7016 128.058C57.5736 128.401 57.1916 128.575 56.8483 128.447C55.7525 128.039 54.6672 127.607 53.5932 127.15C53.2561 127.006 53.0992 126.617 53.2427 126.28ZM61.3936 129.3C61.4998 128.949 61.8701 128.751 62.2208 128.857C63.3179 129.189 64.4247 129.501 65.5408 129.793C65.8952 129.886 66.1072 130.248 66.0144 130.602C65.9216 130.957 65.559 131.169 65.2046 131.076C64.073 130.78 62.95 130.464 61.8363 130.126C61.4856 130.02 61.2874 129.65 61.3936 129.3ZM69.8062 131.489C69.8808 131.131 70.2321 130.901 70.5908 130.975C71.7159 131.209 72.8489 131.427 73.9892 131.628C74.35 131.692 74.5907 132.036 74.5269 132.397C74.4631 132.757 74.1189 132.998 73.7581 132.934C72.6053 132.73 71.4592 132.511 70.3205 132.274C69.9618 132.199 69.7315 131.848 69.8062 131.489ZM78.3718 132.995C78.4213 132.632 78.7556 132.378 79.1186 132.428C80.2609 132.583 81.4094 132.725 82.5634 132.855C82.9274 132.896 83.1893 133.224 83.1483 133.588C83.1073 133.952 82.7789 134.214 82.4149 134.173C81.2513 134.042 80.0927 133.899 78.9397 133.742C78.5767 133.692 78.3224 133.358 78.3718 132.995ZM87.0186 133.963C87.0488 133.598 87.3692 133.327 87.7344 133.357C88.8865 133.452 90.043 133.537 91.2035 133.613C91.5691 133.637 91.846 133.953 91.822 134.318C91.7981 134.684 91.4823 134.96 91.1167 134.937C89.9492 134.86 88.7852 134.774 87.6252 134.679C87.26 134.649 86.9885 134.328 87.0186 133.963ZM95.7035 134.53C95.7198 134.164 96.0297 133.88 96.3957 133.897C97.5528 133.948 98.7128 133.992 99.8752 134.031C100.241 134.043 100.528 134.349 100.516 134.715C100.504 135.081 100.198 135.368 99.8314 135.356C98.6644 135.318 97.4993 135.273 96.3368 135.221C95.9707 135.205 95.6872 134.895 95.7035 134.53ZM104.403 134.816C104.41 134.45 104.713 134.159 105.08 134.166C106.238 134.189 107.398 134.208 108.56 134.223C108.926 134.228 109.219 134.529 109.214 134.895C109.209 135.261 108.908 135.554 108.542 135.549C107.378 135.534 106.215 135.515 105.053 135.492C104.687 135.485 104.396 135.182 104.403 134.816ZM113.107 134.934C113.11 134.567 113.409 134.273 113.775 134.275C114.935 134.284 116.096 134.291 117.256 134.297C117.622 134.299 117.918 134.598 117.915 134.964C117.913 135.33 117.615 135.626 117.248 135.624C116.088 135.617 114.927 135.61 113.765 135.602C113.399 135.599 113.104 135.3 113.107 134.934ZM121.81 134.986C121.813 134.62 122.112 134.325 122.478 134.328C123.641 134.335 124.802 134.344 125.962 134.355C126.328 134.359 126.623 134.659 126.619 135.025C126.615 135.391 126.316 135.685 125.949 135.682C124.791 135.67 123.631 135.661 122.469 135.654C122.103 135.651 121.808 135.353 121.81 134.986ZM130.512 135.076C130.518 134.71 130.821 134.419 131.187 134.425C132.353 134.446 133.516 134.471 134.677 134.501C135.043 134.511 135.332 134.815 135.323 135.181C135.313 135.547 135.008 135.836 134.642 135.827C133.486 135.797 132.326 135.772 131.163 135.751C130.797 135.745 130.505 135.443 130.512 135.076ZM139.208 135.311C139.223 134.945 139.532 134.661 139.898 134.676C141.068 134.725 142.234 134.782 143.395 134.846C143.761 134.867 144.041 135.18 144.02 135.545C144 135.911 143.687 136.191 143.321 136.17C142.167 136.106 141.007 136.05 139.842 136.001C139.476 135.986 139.192 135.677 139.208 135.311ZM147.889 135.807C147.919 135.442 148.239 135.17 148.604 135.199C149.777 135.294 150.943 135.4 152.103 135.517C152.468 135.554 152.733 135.879 152.696 136.244C152.659 136.608 152.334 136.873 151.969 136.836C150.819 136.72 149.661 136.615 148.497 136.521C148.132 136.492 147.86 136.172 147.889 135.807ZM156.553 136.701C156.603 136.338 156.937 136.084 157.3 136.134C158.465 136.294 159.622 136.469 160.77 136.66C161.131 136.72 161.376 137.061 161.316 137.423C161.256 137.784 160.914 138.028 160.552 137.968C159.417 137.779 158.273 137.607 157.119 137.448C156.756 137.398 156.503 137.064 156.553 136.701ZM165.137 138.149C165.215 137.791 165.568 137.564 165.926 137.642C167.073 137.89 168.209 138.157 169.335 138.444C169.69 138.535 169.904 138.896 169.813 139.251C169.723 139.606 169.361 139.82 169.006 139.729C167.897 139.446 166.777 139.183 165.645 138.938C165.287 138.86 165.06 138.507 165.137 138.149ZM173.557 140.33C173.67 139.982 174.044 139.791 174.393 139.904C175.506 140.265 176.607 140.649 177.694 141.059C178.037 141.188 178.21 141.571 178.081 141.913C177.952 142.256 177.569 142.429 177.226 142.3C176.159 141.898 175.078 141.52 173.984 141.166C173.635 141.053 173.444 140.679 173.557 140.33ZM181.674 143.427C181.83 143.096 182.225 142.953 182.557 143.109C183.617 143.607 184.662 144.133 185.692 144.69C186.014 144.864 186.134 145.267 185.959 145.589C185.785 145.911 185.382 146.031 185.06 145.856C184.054 145.312 183.031 144.797 181.993 144.309C181.661 144.154 181.519 143.759 181.674 143.427ZM189.299 147.594C189.502 147.289 189.914 147.206 190.219 147.409C191.188 148.054 192.141 148.731 193.075 149.441C193.367 149.663 193.424 150.079 193.202 150.371C192.98 150.662 192.564 150.719 192.272 150.497C191.36 149.804 190.43 149.143 189.484 148.513C189.179 148.31 189.096 147.899 189.299 147.594ZM196.189 152.878C196.438 152.609 196.857 152.593 197.126 152.842C197.974 153.627 198.805 154.446 199.616 155.299C199.869 155.565 199.858 155.984 199.593 156.237C199.327 156.489 198.907 156.478 198.655 156.213C197.863 155.38 197.052 154.581 196.225 153.815C195.956 153.566 195.94 153.147 196.189 152.878ZM202.138 159.177C202.425 158.95 202.843 159 203.069 159.287C203.785 160.195 204.482 161.136 205.161 162.11C205.371 162.411 205.297 162.824 204.996 163.033C204.696 163.243 204.282 163.169 204.073 162.868C203.408 161.915 202.726 160.995 202.027 160.108C201.8 159.821 201.85 159.404 202.138 159.177ZM207.076 166.301C207.393 166.117 207.799 166.224 207.983 166.541C208.563 167.54 209.128 168.57 209.675 169.632C209.843 169.958 209.714 170.358 209.389 170.525C209.063 170.693 208.663 170.565 208.495 170.239C207.958 169.197 207.405 168.187 206.835 167.207C206.651 166.891 206.759 166.485 207.076 166.301ZM211.037 174.022C211.373 173.877 211.764 174.032 211.909 174.369C212.364 175.425 212.804 176.51 213.23 177.622C213.36 177.964 213.189 178.348 212.847 178.478C212.504 178.609 212.121 178.438 211.99 178.096C211.571 177 211.138 175.932 210.69 174.893C210.545 174.557 210.7 174.167 211.037 174.022ZM214.129 182.152C214.478 182.041 214.851 182.234 214.962 182.583C215.307 183.666 215.64 184.774 215.958 185.906C216.058 186.258 215.852 186.625 215.5 186.724C215.147 186.823 214.781 186.618 214.681 186.265C214.366 185.147 214.039 184.054 213.698 182.985C213.587 182.636 213.78 182.263 214.129 182.152ZM216.485 190.576C216.842 190.494 217.199 190.716 217.281 191.073C217.533 192.159 217.774 193.266 218.003 194.394C218.076 194.753 217.844 195.103 217.485 195.176C217.126 195.249 216.776 195.017 216.703 194.659C216.476 193.542 216.238 192.446 215.989 191.372C215.906 191.015 216.128 190.659 216.485 190.576ZM218.198 199.068C218.559 199.009 218.9 199.254 218.96 199.615C219.057 200.212 219.152 200.813 219.244 201.421C219.299 201.785 219.355 202.149 219.41 202.512L219.511 203.176C219.566 203.539 219.316 203.877 218.954 203.932C218.592 203.987 218.254 203.738 218.199 203.375C218.11 202.792 218.021 202.206 217.932 201.619L218.588 201.52L217.932 201.619C217.841 201.017 217.747 200.421 217.65 199.83C217.591 199.468 217.836 199.127 218.198 199.068ZM219.557 207.868C219.919 207.812 220.258 208.06 220.314 208.422C220.495 209.595 220.678 210.761 220.861 211.918C220.919 212.28 220.672 212.619 220.31 212.677C219.948 212.734 219.608 212.487 219.551 212.126C219.367 210.966 219.184 209.799 219.003 208.625C218.947 208.263 219.195 207.924 219.557 207.868ZM220.948 216.604C221.309 216.543 221.651 216.787 221.712 217.148C221.908 218.32 222.106 219.483 222.308 220.635C222.371 220.996 222.13 221.339 221.769 221.402C221.408 221.465 221.064 221.224 221.001 220.863C220.799 219.708 220.6 218.542 220.403 217.367C220.343 217.006 220.587 216.664 220.948 216.604ZM222.484 225.321C222.844 225.253 223.191 225.489 223.26 225.848C223.483 227.015 223.71 228.169 223.944 229.311C224.017 229.67 223.785 230.02 223.426 230.094C223.068 230.167 222.717 229.936 222.644 229.577C222.409 228.429 222.181 227.269 221.957 226.097C221.888 225.737 222.124 225.39 222.484 225.321ZM224.27 233.992C224.627 233.91 224.983 234.133 225.065 234.49C225.331 235.648 225.605 236.791 225.888 237.919C225.977 238.274 225.761 238.634 225.405 238.723C225.05 238.813 224.69 238.597 224.601 238.242C224.315 237.105 224.039 235.953 223.771 234.787C223.689 234.43 223.912 234.074 224.27 233.992ZM226.44 242.564C226.792 242.462 227.16 242.664 227.262 243.016C227.593 244.158 227.936 245.28 228.292 246.383C228.404 246.732 228.213 247.105 227.864 247.218C227.516 247.33 227.142 247.139 227.029 246.79C226.669 245.674 226.322 244.539 225.988 243.385C225.885 243.033 226.088 242.666 226.44 242.564ZM229.185 250.978C229.527 250.847 229.911 251.017 230.042 251.359C230.467 252.467 230.909 253.549 231.368 254.607C231.514 254.942 231.36 255.333 231.024 255.479C230.688 255.625 230.298 255.471 230.152 255.135C229.684 254.059 229.235 252.958 228.804 251.834C228.672 251.492 228.843 251.109 229.185 250.978ZM232.751 259.074C233.074 258.902 233.476 259.024 233.648 259.348C234.203 260.39 234.781 261.402 235.383 262.381C235.575 262.693 235.478 263.101 235.166 263.293C234.854 263.485 234.445 263.388 234.253 263.076C233.635 262.072 233.044 261.036 232.476 259.97C232.304 259.647 232.427 259.246 232.751 259.074ZM237.432 266.57C237.721 266.345 238.137 266.396 238.363 266.685C239.082 267.608 239.832 268.493 240.615 269.339C240.864 269.608 240.847 270.027 240.578 270.276C240.309 270.524 239.889 270.508 239.641 270.239C238.832 269.365 238.058 268.451 237.316 267.501C237.091 267.212 237.143 266.795 237.432 266.57ZM243.476 273.008C243.708 272.725 244.126 272.683 244.409 272.915C245.303 273.645 246.234 274.334 247.203 274.98C247.508 275.183 247.59 275.594 247.387 275.899C247.184 276.204 246.772 276.286 246.467 276.083C245.461 275.413 244.496 274.699 243.57 273.941C243.286 273.71 243.244 273.292 243.476 273.008ZM250.856 277.861C251.013 277.53 251.409 277.389 251.74 277.546C252.769 278.033 253.836 278.481 254.944 278.887C255.288 279.013 255.464 279.394 255.338 279.738C255.212 280.082 254.831 280.258 254.487 280.132C253.342 279.712 252.238 279.249 251.172 278.744C250.841 278.587 250.699 278.192 250.856 277.861ZM259.161 280.868C259.244 280.512 259.6 280.289 259.957 280.372C261.066 280.629 262.21 280.85 263.391 281.034C263.753 281.09 264.001 281.43 263.944 281.791C263.887 282.153 263.548 282.401 263.186 282.344C261.975 282.155 260.799 281.928 259.658 281.664C259.301 281.581 259.078 281.225 259.161 280.868ZM267.885 282.212C267.908 281.846 268.222 281.568 268.588 281.59C269.171 281.626 269.762 281.654 270.361 281.674C270.727 281.686 271.014 281.993 271.002 282.359C270.989 282.725 270.683 283.012 270.316 283C269.705 282.979 269.102 282.951 268.507 282.914C268.141 282.892 267.863 282.577 267.885 282.212Z" fill="black"></path>
</svg>
