<?xml version="1.0" encoding="UTF-8"?>
<svg xmlns="http://www.w3.org/2000/svg" width="220" height="138" viewBox="0 0 220 138" fill="none">
  <g opacity="0.2">
    <path d="M218.618 1.41006C214.692 0.805058 210.68 1.64283 207.324 3.76829L202.809 6.30722L180.471 1.87761L181.343 1.38747C181.823 1.08444 182.218 0.664694 182.492 0.16742C181.925 0.143158 181.361 0.263024 180.852 0.515824L177.409 2.45189L192.681 12.0027L186.187 15.6542L178.265 13.6038L180.811 12.1726C181.294 11.8687 181.692 11.4472 181.969 10.9477C181.398 10.9243 180.831 11.0458 180.32 11.301L173.217 15.2956L179.723 20.3789L179.321 20.7656C179.183 20.8969 179.092 21.0706 179.063 21.2593C179.034 21.4479 179.069 21.6408 179.161 21.8076L179.715 22.7926C179.789 22.9174 179.894 23.0204 180.021 23.0911L178.354 28.4914L181.239 26.8691L184.383 22.5655L184.614 22.5274C187.298 22.0579 189.883 21.1358 192.259 19.8005L194.97 18.2761L194.862 33.4688L198.209 31.5866C198.69 31.2836 199.085 30.8638 199.359 30.3666C198.792 30.3445 198.228 30.4642 197.719 30.715L197.066 31.0826L205.49 12.3601C205.49 12.3601 212.561 8.61332 217.44 5.64029C218.269 5.05875 218.989 4.33564 219.566 3.50415C219.708 3.31631 219.796 3.09388 219.822 2.8602C219.848 2.62653 219.81 2.39021 219.713 2.17604C219.616 1.96187 219.463 1.77774 219.271 1.64297C219.078 1.5082 218.853 1.42774 218.618 1.41006Z" fill="black"></path>
    <path d="M30.5878 131.729C30.4514 131.805 30.2901 131.825 30.1394 131.783C29.9888 131.74 29.861 131.64 29.7843 131.504C29.7103 131.367 29.6923 131.206 29.7343 131.056C29.7763 130.906 29.875 130.779 30.0094 130.7C31.6132 129.798 33.259 128.747 34.913 127.587C35.0413 127.499 35.1992 127.465 35.3524 127.493C35.5055 127.521 35.6414 127.608 35.7306 127.735C35.7752 127.798 35.807 127.868 35.8241 127.943C35.8413 128.018 35.8434 128.095 35.8304 128.171C35.8175 128.247 35.7896 128.319 35.7485 128.384C35.7074 128.448 35.6539 128.504 35.5911 128.548C33.9458 129.703 32.2564 130.779 30.5878 131.729ZM25.3329 134.339L25.2719 134.374C23.4326 135.155 21.5355 135.792 19.5977 136.28C19.447 136.316 19.288 136.292 19.155 136.212C19.0221 136.132 18.926 136.003 18.8874 135.853C18.8481 135.702 18.8705 135.541 18.9496 135.406C19.0286 135.271 19.1579 135.174 19.3091 135.134C21.1851 134.664 23.0219 134.049 24.803 133.295C24.939 133.247 25.0879 133.25 25.2216 133.304C25.3554 133.358 25.4647 133.459 25.5288 133.589C25.593 133.718 25.6076 133.866 25.5699 134.005C25.5322 134.145 25.4448 134.265 25.3242 134.344L25.3329 134.339ZM40.2147 125.019C40.093 125.085 39.9523 125.107 39.8164 125.08C39.6805 125.054 39.5578 124.982 39.469 124.876C39.3708 124.755 39.3247 124.6 39.3406 124.445C39.3566 124.289 39.4333 124.147 39.5541 124.048C41.0011 122.867 42.4884 121.595 43.98 120.229C44.0971 120.131 44.2474 120.083 44.3993 120.094C44.5513 120.104 44.6931 120.174 44.7952 120.287C44.8973 120.4 44.9518 120.548 44.9471 120.7C44.9425 120.852 44.8791 120.997 44.7703 121.103C43.2476 122.476 41.7614 123.771 40.297 124.961L40.2147 125.019ZM13.9683 137.082C13.889 137.124 13.8019 137.15 13.7122 137.157C11.7224 137.251 9.72837 137.126 7.76596 136.783C7.68319 136.778 7.60239 136.756 7.52887 136.718C7.45534 136.679 7.39072 136.626 7.33924 136.561C7.28776 136.496 7.25055 136.421 7.23007 136.34C7.20958 136.26 7.20626 136.176 7.22033 136.094C7.23439 136.013 7.26554 135.935 7.31172 135.866C7.3579 135.797 7.41809 135.739 7.48835 135.695C7.55861 135.651 7.63738 135.622 7.71949 135.61C7.80161 135.599 7.88525 135.605 7.96495 135.628C9.85424 135.945 11.7721 136.059 13.6857 135.967C13.7623 135.962 13.8392 135.972 13.9117 135.997C13.9843 136.023 14.051 136.062 14.1079 136.114C14.1647 136.165 14.2106 136.228 14.2427 136.298C14.2748 136.367 14.2925 136.443 14.2946 136.52C14.3026 136.635 14.2758 136.751 14.2176 136.851C14.1594 136.951 14.0726 137.031 13.9683 137.082ZM48.9207 117.141C48.7962 117.213 48.6497 117.237 48.5086 117.209C48.3676 117.18 48.2417 117.102 48.1547 116.987C48.0677 116.872 48.0256 116.73 48.0363 116.586C48.0469 116.443 48.1097 116.308 48.2126 116.208C49.5452 114.885 50.9045 113.467 52.2791 111.994C52.3296 111.93 52.3928 111.877 52.4646 111.839C52.5364 111.801 52.6153 111.778 52.6964 111.772C52.7775 111.766 52.859 111.776 52.9358 111.803C53.0127 111.83 53.0831 111.872 53.1427 111.927C53.2024 111.983 53.25 112.05 53.2825 112.124C53.315 112.199 53.3317 112.279 53.3317 112.361C53.3316 112.442 53.3147 112.523 53.282 112.597C53.2493 112.672 53.2016 112.738 53.1419 112.794C51.7635 114.28 50.3868 115.708 49.0503 117.045L48.9207 117.141ZM56.9333 108.539C56.8272 108.6 56.7049 108.626 56.5832 108.615C56.4615 108.603 56.3465 108.554 56.254 108.474C56.195 108.423 56.1467 108.362 56.1119 108.292C56.0772 108.223 56.0567 108.147 56.0516 108.07C56.0466 107.993 56.0572 107.915 56.0827 107.842C56.1082 107.768 56.1482 107.701 56.2002 107.644C57.468 106.185 58.7385 104.69 60.0139 103.205C60.0614 103.139 60.1217 103.084 60.1913 103.043C60.2608 103.002 60.338 102.976 60.4181 102.966C60.4982 102.956 60.5795 102.962 60.657 102.985C60.7345 103.008 60.8065 103.046 60.8686 103.098C60.9307 103.149 60.9815 103.213 61.0179 103.285C61.0543 103.357 61.0756 103.436 61.0803 103.517C61.085 103.597 61.0732 103.678 61.0455 103.754C61.0178 103.83 60.9748 103.899 60.9192 103.957C59.6559 105.479 58.3759 106.963 57.0793 108.411C57.041 108.464 56.9911 108.508 56.9333 108.539ZM2.40215 135.406C2.26805 135.481 2.10955 135.5 1.96146 135.458C0.0526832 134.913 -1.81704 134.24 -3.63487 133.443C-3.75928 133.369 -3.85228 133.252 -3.89622 133.114C-3.94016 132.977 -3.93196 132.827 -3.8732 132.695C-3.81444 132.563 -3.7092 132.457 -3.57747 132.398C-3.44574 132.338 -3.29669 132.329 -3.15863 132.372C-1.39261 133.146 0.423801 133.799 2.27811 134.328C2.38875 134.361 2.48725 134.426 2.56143 134.514C2.63561 134.603 2.68219 134.711 2.69539 134.826C2.7086 134.941 2.68786 135.057 2.63574 135.16C2.58361 135.263 2.50238 135.348 2.40215 135.406ZM64.4317 99.4927C64.3316 99.5514 64.2161 99.5781 64.1004 99.5693C63.9848 99.5605 63.8746 99.5167 63.7846 99.4436C63.664 99.3453 63.5864 99.204 63.568 99.0495C63.5496 98.8951 63.5919 98.7395 63.6861 98.6156C64.8972 97.0971 66.1024 95.5475 67.294 93.994C67.3388 93.9311 67.396 93.8779 67.4621 93.8378C67.5281 93.7976 67.6016 93.7713 67.6782 93.7605C67.7547 93.7497 67.8327 93.7545 67.9073 93.7747C67.9819 93.7949 68.0516 93.8301 68.1122 93.8781C68.174 93.9239 68.2261 93.9815 68.2654 94.0475C68.3048 94.1136 68.3306 94.1868 68.3414 94.263C68.3522 94.3391 68.3477 94.4166 68.3283 94.491C68.3088 94.5654 68.2747 94.6352 68.2281 94.6964C67.0298 96.265 65.8246 97.8146 64.6126 99.3452C64.5622 99.4054 64.5008 99.4554 64.4317 99.4927ZM71.5761 90.1635C71.4592 90.2245 71.3253 90.2445 71.1957 90.2205C71.0661 90.1964 70.9483 90.1297 70.861 90.0309C70.7738 89.9321 70.7221 89.8069 70.7143 89.6753C70.7065 89.5438 70.743 89.4134 70.8179 89.3049C71.9861 87.7302 73.1357 86.143 74.2853 84.5558C74.379 84.4322 74.5169 84.3496 74.6702 84.3254C74.8235 84.3013 74.9801 84.3374 75.1073 84.4263C75.1707 84.4711 75.2245 84.5281 75.2655 84.594C75.3064 84.6598 75.3338 84.7333 75.3459 84.8099C75.3579 84.8866 75.3545 84.9649 75.3358 85.0402C75.3171 85.1155 75.2834 85.1863 75.2368 85.2483C74.0872 86.8355 72.9376 88.4227 71.7608 90.0023C71.7116 90.0693 71.6507 90.1269 71.581 90.1722L71.5761 90.1635ZM-8.25438 130.614C-8.34953 130.667 -8.45741 130.694 -8.56645 130.69C-8.67548 130.687 -8.78153 130.654 -8.87319 130.595C-10.5389 129.483 -12.0814 128.196 -13.4746 126.757C-13.5282 126.702 -13.57 126.636 -13.5977 126.563C-13.6254 126.491 -13.6384 126.414 -13.6359 126.337C-13.6334 126.26 -13.6155 126.184 -13.5832 126.113C-13.5509 126.043 -13.5048 125.98 -13.4478 125.928C-13.3927 125.874 -13.3275 125.833 -13.2561 125.804C-13.1846 125.776 -13.1083 125.763 -13.0316 125.765C-12.9549 125.766 -12.8793 125.783 -12.8092 125.814C-12.739 125.845 -12.6758 125.89 -12.6231 125.946C-11.3029 127.33 -9.83767 128.567 -8.25261 129.638C-8.18816 129.679 -8.13281 129.734 -8.08988 129.797C-8.04695 129.861 -8.01732 129.933 -8.00278 130.008C-7.98824 130.083 -7.98908 130.161 -8.00526 130.236C-8.02143 130.311 -8.05262 130.382 -8.09693 130.445C-8.1349 130.513 -8.18894 130.571 -8.25438 130.614ZM78.4688 80.6316C78.3717 80.6867 78.2607 80.7125 78.1491 80.7061C78.0376 80.6996 77.9304 80.661 77.8402 80.595C77.7144 80.5043 77.6294 80.3678 77.6035 80.2148C77.5776 80.0619 77.613 79.9049 77.702 79.7779C78.8418 78.1733 79.9593 76.5697 81.0767 74.9662C81.1711 74.8517 81.3052 74.7769 81.4522 74.7568C81.5993 74.7367 81.7485 74.7728 81.8701 74.8578C81.9917 74.9429 82.0768 75.0706 82.1085 75.2156C82.1401 75.3606 82.116 75.5122 82.0408 75.6402C80.925 77.2466 79.7972 78.8522 78.6573 80.4568C78.6095 80.5294 78.5448 80.5894 78.4688 80.6316ZM173.749 23.75L173.688 23.7843C171.862 24.5632 169.978 25.1968 168.053 25.6792C167.978 25.6986 167.901 25.703 167.824 25.692C167.748 25.681 167.675 25.6548 167.608 25.6151C167.542 25.5754 167.485 25.5228 167.439 25.4606C167.394 25.3983 167.361 25.3276 167.343 25.2526C167.309 25.102 167.334 24.9442 167.414 24.8119C167.493 24.6797 167.621 24.5831 167.77 24.5423C169.636 24.0777 171.461 23.4618 173.227 22.7007C173.298 22.6693 173.375 22.6525 173.453 22.6512C173.53 22.65 173.607 22.6643 173.679 22.6933C173.751 22.7224 173.817 22.7656 173.872 22.8204C173.927 22.8753 173.97 22.9405 173.999 23.0124C174.057 23.1446 174.063 23.2932 174.016 23.4295C173.97 23.5659 173.874 23.6801 173.749 23.75ZM85.2194 71.0305C85.1229 71.0836 85.0137 71.109 84.9037 71.1041C84.7937 71.0992 84.6871 71.0641 84.5957 71.0026C84.5318 70.9587 84.4772 70.9027 84.4349 70.8376C84.3927 70.7726 84.3637 70.6999 84.3496 70.6237C84.3355 70.5474 84.3366 70.4691 84.3528 70.3933C84.3689 70.3175 84.3999 70.2456 84.4439 70.1817L87.7679 65.3411C87.8552 65.212 87.99 65.1227 88.1429 65.0926C88.2957 65.0625 88.4543 65.0941 88.584 65.1805C88.7109 65.2709 88.7978 65.407 88.8261 65.5603C88.8544 65.7135 88.8221 65.8717 88.7359 66.0015L85.4079 70.8557C85.3592 70.9276 85.2948 70.9873 85.2194 71.0305ZM162.443 26.5968C162.349 26.6318 162.247 26.6413 162.149 26.6246C160.171 26.7661 158.186 26.7549 156.21 26.5911C156.133 26.5849 156.057 26.5636 155.988 26.5283C155.919 26.4929 155.858 26.4443 155.807 26.3852C155.757 26.3261 155.719 26.2577 155.695 26.1838C155.671 26.1099 155.662 26.0321 155.669 25.9547C155.674 25.8781 155.695 25.8034 155.729 25.7348C155.764 25.6662 155.812 25.6052 155.87 25.5553C155.929 25.5054 155.996 25.4676 156.069 25.444C156.143 25.4205 156.22 25.4118 156.296 25.4183C158.212 25.582 160.138 25.5961 162.056 25.4605C162.189 25.4528 162.32 25.49 162.428 25.566C162.537 25.642 162.617 25.7523 162.655 25.8793C162.693 26.0062 162.688 26.1424 162.639 26.2657C162.591 26.3891 162.502 26.4925 162.387 26.5592L162.443 26.5968ZM-16.2674 122.179C-16.3345 122.218 -16.409 122.243 -16.4862 122.253C-16.5634 122.263 -16.6419 122.257 -16.7168 122.236C-16.7918 122.215 -16.8618 122.18 -16.9226 122.131C-16.9834 122.082 -17.0338 122.022 -17.0708 121.953L-17.1933 121.736C-18.1359 120.053 -18.885 118.269 -19.4266 116.418C-19.4706 116.269 -19.4538 116.109 -19.3798 115.972C-19.3058 115.836 -19.1807 115.735 -19.0321 115.691C-18.8834 115.647 -18.7233 115.664 -18.5871 115.738C-18.4508 115.812 -18.3495 115.937 -18.3054 116.085C-17.7878 117.852 -17.0727 119.555 -16.1735 121.162L-16.0706 121.345C-15.9942 121.481 -15.9735 121.641 -16.013 121.792C-16.0525 121.942 -16.1489 122.072 -16.2821 122.152L-16.2674 122.179ZM91.8333 61.2883C91.7381 61.3411 91.6299 61.3661 91.5211 61.3603C91.4123 61.3545 91.3074 61.3182 91.2183 61.2555C91.0892 61.1683 90.9999 61.0335 90.9698 60.8806C90.9397 60.7277 90.9713 60.5691 91.0577 60.4395L94.3905 55.594C94.4344 55.5301 94.4905 55.4755 94.5555 55.4332C94.6206 55.391 94.6933 55.362 94.7695 55.3479C94.8458 55.3338 94.924 55.3349 94.9999 55.351C95.0757 55.3672 95.1476 55.3982 95.2115 55.4421C95.3384 55.5325 95.4253 55.6686 95.4536 55.8219C95.4819 55.9751 95.4496 56.1333 95.3633 56.2631C94.27 57.8416 93.1591 59.4567 92.0305 61.1086C91.9797 61.183 91.9121 61.2445 91.8333 61.2883ZM150.75 25.7149C150.63 25.7791 150.492 25.8001 150.359 25.7742C148.696 25.47 147.062 25.1152 145.456 24.768L144.592 24.5772C144.45 24.534 144.33 24.4392 144.255 24.3116C144.18 24.184 144.156 24.0328 144.187 23.8882C144.218 23.7435 144.303 23.6159 144.424 23.5306C144.545 23.4454 144.693 23.4087 144.84 23.4278L145.705 23.6186C147.297 23.962 148.917 24.3131 150.571 24.6222C150.724 24.6522 150.859 24.7403 150.948 24.868C151.037 24.9956 151.072 25.1528 151.048 25.3064C151.028 25.3912 150.992 25.4711 150.941 25.5413C150.889 25.6116 150.824 25.6706 150.75 25.7149ZM98.5322 51.636C98.4364 51.6913 98.3267 51.7181 98.2162 51.7131C98.1057 51.7082 97.9989 51.6717 97.9084 51.6081C97.7815 51.5164 97.6955 51.3786 97.6688 51.2243C97.642 51.07 97.6766 50.9114 97.7653 50.7823C98.934 49.127 100.065 47.5273 101.181 45.982C101.277 45.8682 101.413 45.7951 101.561 45.7773C101.709 45.7594 101.858 45.7983 101.979 45.886C102.099 45.9737 102.182 46.1037 102.21 46.25C102.239 46.3963 102.211 46.5479 102.132 46.6745C101.02 48.2061 99.8894 49.8059 98.7294 51.4562C98.6705 51.5219 98.5982 51.5743 98.5175 51.6098L98.5322 51.636ZM139.257 23.4352C139.145 23.5003 139.013 23.5256 138.885 23.5071C136.986 23.201 135.064 23.0533 133.141 23.0656C132.985 23.066 132.835 23.0058 132.723 22.8976C132.611 22.7894 132.545 22.6418 132.54 22.4859C132.539 22.33 132.599 22.1801 132.708 22.0679C132.816 21.9556 132.963 21.8899 133.119 21.8846C135.108 21.8755 137.093 22.029 139.056 22.3436C139.176 22.3634 139.287 22.4197 139.373 22.5048C139.46 22.5898 139.518 22.6995 139.54 22.8189C139.562 22.9382 139.547 23.0615 139.496 23.1718C139.445 23.2821 139.362 23.3741 139.257 23.4352ZM105.446 42.0807C105.347 42.1381 105.233 42.1649 105.119 42.1577C105.005 42.1505 104.895 42.1096 104.804 42.0403C104.68 41.9452 104.598 41.8057 104.576 41.6513C104.553 41.4969 104.592 41.3398 104.683 41.2133C106.005 39.4834 107.211 37.9562 108.344 36.5847C108.393 36.5247 108.454 36.4749 108.522 36.4383C108.591 36.4016 108.666 36.3788 108.743 36.3711C108.82 36.3634 108.898 36.371 108.972 36.3934C109.046 36.4158 109.115 36.4526 109.175 36.5017C109.235 36.5509 109.285 36.6113 109.322 36.6796C109.358 36.748 109.381 36.8229 109.389 36.9C109.397 36.9772 109.389 37.0551 109.367 37.1294C109.344 37.2036 109.307 37.2727 109.258 37.3327C108.12 38.6955 106.935 40.1994 105.622 41.9244C105.577 41.9897 105.516 42.0433 105.446 42.0807ZM-19.6263 111.023C-19.6987 111.062 -19.778 111.088 -19.86 111.097C-20.0155 111.109 -20.1697 111.061 -20.2899 110.961C-20.4101 110.862 -20.4868 110.719 -20.5038 110.564C-20.6669 108.578 -20.6651 106.582 -20.4986 104.596C-20.4885 104.438 -20.416 104.29 -20.2973 104.186C-20.1785 104.081 -20.0231 104.028 -19.8653 104.039C-19.7074 104.049 -19.5601 104.121 -19.4557 104.24C-19.3512 104.359 -19.2982 104.514 -19.3084 104.672C-19.4699 106.583 -19.4752 108.505 -19.3244 110.417C-19.3065 110.537 -19.3259 110.659 -19.3799 110.768C-19.4339 110.876 -19.5199 110.965 -19.6263 111.023ZM113 33.0718C112.889 33.1337 112.761 33.1587 112.635 33.1431C112.508 33.1276 112.39 33.0722 112.297 32.9851C112.186 32.8757 112.123 32.7268 112.121 32.5708C112.119 32.4148 112.179 32.2645 112.288 32.1527C113.664 30.7231 115.128 29.3822 116.673 28.1381C116.732 28.0885 116.801 28.0515 116.875 28.0291C116.948 28.0067 117.026 27.9995 117.102 28.0079C117.179 28.0163 117.253 28.0402 117.32 28.078C117.387 28.1159 117.446 28.1669 117.493 28.2281C117.591 28.3493 117.637 28.5045 117.621 28.6596C117.605 28.8148 117.528 28.9573 117.408 29.0561C115.903 30.2676 114.475 31.5722 113.134 32.9623L113 33.0718ZM127.624 23.7011L127.494 23.7746C125.651 24.2563 123.874 24.9592 122.2 25.8678C122.132 25.9047 122.057 25.9277 121.98 25.9357C121.903 25.9436 121.825 25.9363 121.751 25.9141C121.677 25.892 121.607 25.8554 121.547 25.8065C121.487 25.7576 121.437 25.6973 121.4 25.6292C121.336 25.4897 121.324 25.3314 121.368 25.1841C121.412 25.0369 121.509 24.9107 121.639 24.8295C123.399 23.8815 125.264 23.1445 127.196 22.6339C127.335 22.5984 127.481 22.6143 127.609 22.6788C127.737 22.7433 127.837 22.852 127.89 22.9846C127.944 23.1171 127.947 23.2647 127.9 23.3997C127.853 23.5347 127.758 23.648 127.634 23.7185L127.624 23.7011ZM-18.7569 99.3483C-18.8824 99.4191 -19.0298 99.4407 -19.1704 99.4088C-19.3212 99.373 -19.4523 99.2802 -19.5363 99.1499C-19.6202 99.0196 -19.6505 98.8619 -19.6208 98.7098C-19.2004 96.7552 -18.6353 94.8345 -17.9302 92.9636C-17.8683 92.8203 -17.753 92.7068 -17.6088 92.6471C-17.4646 92.5874 -17.3028 92.5863 -17.1577 92.644C-17.0859 92.6736 -17.0207 92.7171 -16.9657 92.772C-16.9108 92.8269 -16.8672 92.892 -16.8375 92.9638C-16.8078 93.0356 -16.7925 93.1125 -16.7926 93.1902C-16.7927 93.2679 -16.8082 93.3448 -16.8381 93.4164C-17.5342 95.208 -18.0853 97.0525 -18.4861 98.9322C-18.4989 99.0169 -18.5297 99.0978 -18.5764 99.1696C-18.6231 99.2414 -18.6847 99.3023 -18.7569 99.3483Z" fill="black"></path>
    <path d="M-13.5845 90.5314C-13.1648 91.2779 -12.9758 92.1321 -13.0415 92.9859C-13.1072 93.8398 -13.4246 94.655 -13.9536 95.3285C-14.4827 96.002 -15.1995 96.5034 -16.0135 96.7695C-16.8275 97.0355 -17.7022 97.0542 -18.5268 96.8232C-19.3515 96.5922 -20.0891 96.1218 -20.6464 95.4716C-21.2037 94.8213 -21.5557 94.0204 -21.6578 93.1702C-21.76 92.3199 -21.6077 91.4584 -21.2202 90.6947C-20.8327 89.931 -20.2275 89.2993 -19.481 88.8795C-18.4801 88.3167 -17.2965 88.1745 -16.1907 88.4843C-15.0848 88.794 -14.1474 89.5305 -13.5845 90.5314Z" fill="black"></path>
  </g>
</svg>
